<svg viewBox="0 0 650 55" xmlns="http://www.w3.org/2000/svg">
  <path
    d="M174.8 25.87H169.61L170.87 28.06V47.88C166.95 51.01 162.31 52.66 157.45 52.66H157.33C144.58 52.59 134.22 41.09 134.22 27.03C134.22 19.85 136.99 12.97 141.82 8.17C146.05 3.97 151.51 1.66 157.21 1.66H157.33C163.07 1.69 168.57 4.06 172.82 8.32L173.63 9.13V5.45L173.44 5.31C168.76 1.83 163.19 0 157.34 0C142.43 0 130.3 12.13 130.3 27.04C130.3 41.95 142.43 54.08 157.34 54.08C161.88 54.08 166.84 52.72 170.91 50.47V52.15L174.81 53.51V25.88L174.8 25.87ZM437.38 0.580002V2.74L453.93 2.14V49.34L453.24 53.47H458.54L457.85 49.42V2.15L474.38 2.75V0.59H437.38V0.580002ZM119.27 53.47H115.26L109.82 40.33H83.69L78.88 53.47H74.86L95.07 4.71L93.37 0.580002H97.38L119.26 53.47H119.27ZM109.19 38.8L95.96 6.82L84.26 38.8H109.19ZM52.37 0.580002L28.77 46.02L3.99 0.580002H0L1.44 3.24V49.91L0.739998 53.46H3.69L2.98 50V6.08L27.6 51.55L52.19 4.18V49.91L51.5 53.46H56.82L56.13 50V4.12L56.82 0.57H52.38L52.37 0.580002ZM238.42 27.15C238.42 41.17 227.32 53.47 214.66 53.47H195.6L196.31 49.92V4.04L195.6 0.580002H214.66C227.32 0.580002 238.42 12.99 238.42 27.14V27.15ZM233.89 27.01C233.89 10.45 221.56 2.13 214.66 2.13H200.23V51.93H214.66C221.56 51.93 233.89 43.6 233.89 27.01ZM368.07 38.9C367.34 47.2 360.2 53.48 351.86 53.48H332.83L333.47 49.94L333.51 4.06L332.82 0.600002H350.62C356.76 0.600002 362 5.4 362.15 11.53C362.26 16.03 359.75 20.04 355.81 21.92C363.38 23.7 368.77 30.84 368.06 38.91L368.07 38.9ZM337.46 21.48H348.83C354.04 21.33 358.15 17.17 358.23 11.96C358.32 6.55 353.65 2.12 348.24 2.12H337.46V21.48ZM364.19 38C364.48 29.79 357.89 23.02 349.74 23.02H337.45V51.93H349.36C357.2 51.93 363.9 45.84 364.18 38H364.19ZM421.95 4.13L422.66 0.580002H419.72L420.42 4.04V35.96C420.42 44.52 413.68 51.72 405.13 51.92C396.34 52.12 389.12 45.03 389.12 36.28V4.13L389.82 0.580002H384.49L385.19 4.04V35.36C385.19 45.44 393.16 53.88 403.24 54.06C413.32 54.24 421.95 45.93 421.95 35.68V4.13ZM294.18 53.47H290.17L284.73 40.33H258.6L253.79 53.47H249.77L269.98 4.71L268.27 0.580002H272.28L294.16 53.47H294.18ZM284.1 38.8L270.87 6.82L259.17 38.8H284.1ZM526.07 53.47H520.93C516.44 42.42 507.67 30.87 501.05 30.72H493.76V50.02L494.46 53.48H489.14L489.84 49.93L489.78 4.04L489.15 0.59H503.63C513.41 0.59 521.53 5.83 521.22 15.61C520.95 23.95 514.71 29.41 506.64 30.53C511.22 32.44 519.05 42.43 521.65 46.63C524 50.43 526.07 53.47 526.07 53.47ZM501.25 29.17C509.74 29.17 516.99 24.09 517.3 15.61C517.62 6.72 510.48 2.12 501.66 2.12H493.77V29.17H501.25ZM557.49 34.61L576.33 0.580002H573.46L556.43 32.88L539.4 0.580002H535.33L554.17 34.61V49.91L553.46 53.47H558.2L557.5 50.01V34.61H557.49ZM644.67 0.580002L621.07 46.02L596.29 0.580002H592.3L593.74 3.24V49.91L593.04 53.46H595.99L595.28 50V6.08L619.9 51.55L644.49 4.18V49.91L643.8 53.46H649.12L648.43 50V4.12L649.12 0.57H644.68L644.67 0.580002Z"
    fill="currentColor"></path>
</svg>